<?xml version="1.0" encoding="UTF-8" standalone="no"?>
<!-- Created with Inkscape (http://www.inkscape.org/) -->
<svg id="svg2" xmlns:rdf="http://www.w3.org/1999/02/22-rdf-syntax-ns#" xmlns="http://www.w3.org/2000/svg" height="368.79mm" width="282.47mm" version="1.1" xmlns:cc="http://creativecommons.org/ns#" xmlns:xlink="http://www.w3.org/1999/xlink" viewBox="0 0 1000.8633 1306.7382" xmlns:dc="http://purl.org/dc/elements/1.1/">
 <defs id="defs4">
  <linearGradient id="linearGradient4858">
   <stop id="stop4860" stop-color="#c29943" offset="0"/>
   <stop id="stop4862" stop-color="#ffe4a5" stop-opacity=".99608" offset="1"/>
  </linearGradient>
  <linearGradient id="linearGradient4846" y2="679.91" gradientUnits="userSpaceOnUse" x2="1.8795e-13" y1="1760.3" x1="1.2179e-13">
   <stop id="stop4842" offset="0"/>
   <stop id="stop4844" stop-color="#ffe4a5" offset="1"/>
  </linearGradient>
  <linearGradient id="linearGradient4864" y2="928.42" xlink:href="#linearGradient4858" gradientUnits="userSpaceOnUse" x2="-425.68" y1="1069.3" x1="-425.68"/>
  <linearGradient id="linearGradient4864-6" y2="928.42" xlink:href="#linearGradient4858" gradientUnits="userSpaceOnUse" x2="-425.68" gradientTransform="translate(849.51 .41674)" y1="1069.3" x1="-425.68"/>
  <linearGradient id="linearGradient4194" y2="546.36" gradientUnits="userSpaceOnUse" x2="1.9962e-14" y1="872.36">
   <stop id="stop4190" offset="0"/>
   <stop id="stop4192" stop-color="#c33d00" offset="1"/>
  </linearGradient>
 </defs>
 <metadata id="metadata7">
  <rdf:RDF>
   <cc:Work rdf:about="">
    <dc:format>image/svg+xml</dc:format>
    <dc:type rdf:resource="http://purl.org/dc/dcmitype/StillImage"/>
    <dc:title/>
   </cc:Work>
  </rdf:RDF>
 </metadata>
 <g id="layer5" transform="translate(500.37 -346.12)">
  <g id="g4191">
   <path id="path4186" d="m-366.91 882.66s9.4396-26.008 7.0711-57.983c-5.6569-76.368 34.284-113.14 34.284-113.14s-0.89352 53.864 29.698 82.024c45.222 41.627 32.397 18.995 32.397 18.995l-8.4142-17.581c-13.922-29.089-63.296-86.267-27.941-149.91 35.355-63.64 46.669-79.196 46.669-79.196s-21.213 62.225 7.0711 106.07c28.284 43.841 63.64 79.196 63.64 79.196s-22.627-86.267-9.8995-125.87c12.728-39.598 33.941-76.368 32.527-145.66-1.4142-69.296 36.77-57.983 36.77-57.983s-32.527 7.0711-19.799 67.882 16.971 97.581 16.971 140.01c0 42.426 72.125 100.41 72.125 100.41s-25.941-56.569-21.698-118.79c4.2426-62.225 76.953-70.024 76.853-171.12-0.08912-89.644 21.213-93.338 21.213-93.338s72.125 101.82 46.669 193.75c-25.456 91.924-20.669 104.94-15.012 127.56 5.6569 22.627 26.326 61.941 26.326 61.941s-0.48528-49.497 14.142-73.539c17.16-28.205 53.139-94.9 52.326-131.52-0.63328-28.512 15.556-73.539 15.556-73.539s25.623 62.507 38.184 134.35c5.408 30.931-35.355 80.61-22.627 121.62 12.728 41.012 22.627 52.326 22.627 52.326s2.8284-46.669 29.698-79.196 65.054-22.627 53.74-107.48 28.364 38.362 26.87 65.054c-1.7556 31.378-13.983 99.66-15.556 111.72-4.2426 32.527 6.1793 29.238 28.284-21.213 14.314-32.669 46.811-50.912 46.811-50.912s-27.239 96.963-6.0589 138.59c38.831 76.323-21.841 118.79-21.841 118.79l-716.12-16.971z" fill-rule="evenodd" stroke="#edac1b" stroke-width="1px" fill="url(#linearGradient4194)"/>
   <path id="path4149" d="m425.22 865.57a74.77 74.77 0 0 0 -62.457 33.73c-4.1413-0.7856-9.1687-0.99804-15.273-0.99804h-366.91v0.0566h-327.49c-6.3402 0-11.517 0.23081-15.746 1.0938a74.77 74.77 0 0 0 -62.449 -33.758 74.77 74.77 0 0 0 -74.77 74.77 74.77 74.77 0 0 0 74.77 74.77 74.77 74.77 0 0 0 62.848 -34.275c7.5457 1.5037 16.975 0.64626 27.254 3.4004 28.978 7.7646 80 28 80 58 0 14.142-35.14 18.755-45 35-10.55 17.382-11 35-11 60s11 100 86 160c83.899 67.119 118.03 127.32 126.05 149.95 8.0182 22.627 21.525 94.748-102.77 94.748-53.282 0-3.2821 55.584-54.041 55.584-69.241 0-84.537-5.2819-84.537 24.314 0 30.404 0.29688 30.402 20.297 30.402h319.78c0.00002129-0.02-0.00002131-0.037 0-0.057h320.8c20 0 20.297 0 20.297-30.402-0.00001-29.596-15.296-24.314-84.537-24.314-50.759 0-0.75929-55.584-54.041-55.584-124.3 0-110.79-72.121-102.77-94.748 8.0182-22.627 42.154-82.832 126.05-149.95 75-60 86-135 86-160s-0.44951-42.618-11-60c-9.8602-16.245-45-20.858-45-35 0-30 51.022-50.235 80-58 10.141-2.7172 19.459-1.914 26.953-3.3359a74.77 74.77 0 0 0 62.684 34.143 74.77 74.77 0 0 0 74.77 -74.77 74.77 74.77 0 0 0 -74.77 -74.77zm0.18359 34.262a39.982 39.982 0 0 1 39.982 39.982 39.982 39.982 0 0 1 -39.982 39.982 39.982 39.982 0 0 1 -39.98 -39.982 39.982 39.982 0 0 1 39.98 -39.982zm-850.32 0.125a39.982 39.982 0 0 1 39.982 39.982 39.982 39.982 0 0 1 -39.982 39.982 39.982 39.982 0 0 1 -39.98 -39.982 39.982 39.982 0 0 1 39.98 -39.982z" stroke="#fffbaf" fill="url(#linearGradient4846)"/>
   <path id="path4178" d="m-445 947.36s5-10 20-10 20 10 20 10v110s-5 10-20 10-20-10-20-10z" fill-rule="evenodd" stroke="#fffc44" stroke-width="1px" fill="url(#linearGradient4864)"/>
   <path id="path4178-3" d="m404.51 947.78s5-10 20-10 20 10 20 10v110s-5 10-20 10-20-10-20-10z" fill-rule="evenodd" stroke="#fffc44" stroke-width="1px" fill="url(#linearGradient4864-6)"/>
  </g>
 </g>
</svg>
